<?xml version="1.0" encoding="utf-8"?><svg version="1.1" id="Layer_1" xmlns="http://www.w3.org/2000/svg" xmlns:xlink="http://www.w3.org/1999/xlink" x="0px" y="0px" viewBox="0 0 71.59 122.88" style="enable-background:new 0 0 71.59 122.88" xml:space="preserve"><style type="text/css">.st0{fill-rule:evenodd;clip-rule:evenodd;}</style><g><path class="st0" d="M12.74,0h46.11c3.51,0,6.69,1.43,9,3.74c2.31,2.31,3.74,5.49,3.74,9v97.4c0,3.51-1.43,6.69-3.74,9 c-2.31,2.31-5.49,3.74-9,3.74H12.74c-3.51,0-6.69-1.43-9-3.74c-2.31-2.31-3.74-5.49-3.74-9v-97.4c0-3.51,1.43-6.69,3.74-9 C6.05,1.43,9.24,0,12.74,0L12.74,0z M35.79,107.18c2.88,0,5.22,2.34,5.22,5.22c0,2.88-2.34,5.22-5.22,5.22 c-2.88,0-5.22-2.34-5.22-5.22C30.58,109.52,32.91,107.18,35.79,107.18L35.79,107.18z M3.66,103.18h64.28V19.7H3.66V103.18 L3.66,103.18z"/></g></svg>